solid 
  facet normal -6.828309E-16 1.000000E+00 0.000000E+00
    outer loop
      vertex -8.514238E+00 4.711583E+01 -4.354171E+01
      vertex -3.973175E+01 4.711583E+01 -4.354171E+01
      vertex -8.514238E+00 4.711583E+01 -4.271271E+01
    endloop
  endfacet
  facet normal -6.828309E-16 1.000000E+00 0.000000E+00
    outer loop
      vertex -8.514238E+00 4.711583E+01 -4.271271E+01
      vertex -3.973175E+01 4.711583E+01 -4.354171E+01
      vertex -3.973175E+01 4.711583E+01 -4.271271E+01
    endloop
  endfacet
  facet normal 6.525393E-16 -1.000000E+00 8.738998E-32
    outer loop
      vertex 3.770068E-01 -8.884164E+00 -5.388371E+01
      vertex -4.862299E+01 -8.884164E+00 -5.388371E+01
      vertex 3.770068E-01 -8.884164E+00 -5.471271E+01
    endloop
  endfacet
  facet normal 6.525393E-16 -1.000000E+00 0.000000E+00
    outer loop
      vertex 3.770068E-01 -8.884164E+00 -5.471271E+01
      vertex -4.862299E+01 -8.884164E+00 -5.388371E+01
      vertex -4.862299E+01 -8.884164E+00 -5.471271E+01
    endloop
  endfacet
  facet normal 9.876291E-01 1.568081E-01 1.322662E-16
    outer loop
      vertex 3.770068E-01 -8.884164E+00 -5.471271E+01
      vertex -8.514238E+00 4.711583E+01 -4.354171E+01
      vertex 3.770068E-01 -8.884164E+00 -5.388371E+01
    endloop
  endfacet
  facet normal 9.876291E-01 1.568081E-01 0.000000E+00
    outer loop
      vertex 3.770068E-01 -8.884164E+00 -5.388371E+01
      vertex -8.514238E+00 4.711583E+01 -4.354171E+01
      vertex -8.514238E+00 4.711583E+01 -4.271271E+01
    endloop
  endfacet
  facet normal -1.455209E-17 -1.956278E-01 9.806782E-01
    outer loop
      vertex -4.862299E+01 -8.884164E+00 -5.388371E+01
      vertex 3.770068E-01 -8.884164E+00 -5.388371E+01
      vertex -3.973175E+01 4.711583E+01 -4.271271E+01
    endloop
  endfacet
  facet normal 1.335807E-16 -1.956278E-01 9.806782E-01
    outer loop
      vertex -3.973175E+01 4.711583E+01 -4.271271E+01
      vertex 3.770068E-01 -8.884164E+00 -5.388371E+01
      vertex -8.514238E+00 4.711583E+01 -4.271271E+01
    endloop
  endfacet
  facet normal -9.876291E-01 1.568081E-01 0.000000E+00
    outer loop
      vertex -4.862299E+01 -8.884164E+00 -5.471271E+01
      vertex -4.862299E+01 -8.884164E+00 -5.388371E+01
      vertex -3.973175E+01 4.711583E+01 -4.354171E+01
    endloop
  endfacet
  facet normal -9.876291E-01 1.568081E-01 0.000000E+00
    outer loop
      vertex -3.973175E+01 4.711583E+01 -4.354171E+01
      vertex -4.862299E+01 -8.884164E+00 -5.388371E+01
      vertex -3.973175E+01 4.711583E+01 -4.271271E+01
    endloop
  endfacet
  facet normal 1.455209E-17 1.956278E-01 -9.806782E-01
    outer loop
      vertex 3.770068E-01 -8.884164E+00 -5.471271E+01
      vertex -4.862299E+01 -8.884164E+00 -5.471271E+01
      vertex -8.514238E+00 4.711583E+01 -4.354171E+01
    endloop
  endfacet
  facet normal -1.335807E-16 1.956278E-01 -9.806782E-01
    outer loop
      vertex -8.514238E+00 4.711583E+01 -4.354171E+01
      vertex -4.862299E+01 -8.884164E+00 -5.471271E+01
      vertex -3.973175E+01 4.711583E+01 -4.354171E+01
    endloop
  endfacet
  facet normal -2.276103E-16 1.000000E+00 0.000000E+00
    outer loop
      vertex -3.973175E+01 4.711583E+01 -1.688371E+01
      vertex -8.514236E+00 4.711583E+01 -1.688371E+01
      vertex -3.973175E+01 4.711583E+01 -1.771271E+01
    endloop
  endfacet
  facet normal -2.276103E-16 1.000000E+00 0.000000E+00
    outer loop
      vertex -3.973175E+01 4.711583E+01 -1.771271E+01
      vertex -8.514236E+00 4.711583E+01 -1.688371E+01
      vertex -8.514236E+00 4.711583E+01 -1.771271E+01
    endloop
  endfacet
  facet normal 2.175131E-16 -1.000000E+00 0.000000E+00
    outer loop
      vertex -4.862299E+01 -8.884164E+00 -6.541709E+00
      vertex 3.770078E-01 -8.884164E+00 -6.541709E+00
      vertex -4.862299E+01 -8.884164E+00 -5.712708E+00
    endloop
  endfacet
  facet normal 2.175131E-16 -1.000000E+00 0.000000E+00
    outer loop
      vertex -4.862299E+01 -8.884164E+00 -5.712708E+00
      vertex 3.770078E-01 -8.884164E+00 -6.541709E+00
      vertex 3.770078E-01 -8.884164E+00 -5.712708E+00
    endloop
  endfacet
  facet normal -9.876291E-01 1.568081E-01 0.000000E+00
    outer loop
      vertex -4.862299E+01 -8.884164E+00 -5.712708E+00
      vertex -3.973175E+01 4.711583E+01 -1.688371E+01
      vertex -4.862299E+01 -8.884164E+00 -6.541709E+00
    endloop
  endfacet
  facet normal -9.876291E-01 1.568081E-01 0.000000E+00
    outer loop
      vertex -4.862299E+01 -8.884164E+00 -6.541709E+00
      vertex -3.973175E+01 4.711583E+01 -1.688371E+01
      vertex -3.973175E+01 4.711583E+01 -1.771271E+01
    endloop
  endfacet
  facet normal 2.922241E-15 -1.956278E-01 -9.806782E-01
    outer loop
      vertex 3.770078E-01 -8.884164E+00 -6.541709E+00
      vertex -4.862299E+01 -8.884164E+00 -6.541709E+00
      vertex -8.514236E+00 4.711583E+01 -1.771271E+01
    endloop
  endfacet
  facet normal 2.834683E-15 -1.956278E-01 -9.806782E-01
    outer loop
      vertex -8.514236E+00 4.711583E+01 -1.771271E+01
      vertex -4.862299E+01 -8.884164E+00 -6.541709E+00
      vertex -3.973175E+01 4.711583E+01 -1.771271E+01
    endloop
  endfacet
  facet normal 9.876291E-01 1.568081E-01 0.000000E+00
    outer loop
      vertex 3.770078E-01 -8.884164E+00 -5.712708E+00
      vertex 3.770078E-01 -8.884164E+00 -6.541709E+00
      vertex -8.514236E+00 4.711583E+01 -1.688371E+01
    endloop
  endfacet
  facet normal 9.876291E-01 1.568081E-01 0.000000E+00
    outer loop
      vertex -8.514236E+00 4.711583E+01 -1.688371E+01
      vertex 3.770078E-01 -8.884164E+00 -6.541709E+00
      vertex -8.514236E+00 4.711583E+01 -1.771271E+01
    endloop
  endfacet
  facet normal -2.922241E-15 1.956278E-01 9.806782E-01
    outer loop
      vertex -4.862299E+01 -8.884164E+00 -5.712708E+00
      vertex 3.770078E-01 -8.884164E+00 -5.712708E+00
      vertex -3.973175E+01 4.711583E+01 -1.688371E+01
    endloop
  endfacet
  facet normal -2.834683E-15 1.956278E-01 9.806782E-01
    outer loop
      vertex -3.973175E+01 4.711583E+01 -1.688371E+01
      vertex 3.770078E-01 -8.884164E+00 -5.712708E+00
      vertex -8.514236E+00 4.711583E+01 -1.688371E+01
    endloop
  endfacet
  facet normal -2.285618E-15 1.000000E+00 -1.136868E-15
    outer loop
      vertex -3.973175E+01 4.711583E+01 -4.271271E+01
      vertex -3.973175E+01 4.711583E+01 -1.771271E+01
      vertex -3.662299E+01 4.711583E+01 -4.271271E+01
    endloop
  endfacet
  facet normal -2.285618E-15 1.000000E+00 -1.136868E-15
    outer loop
      vertex -3.662299E+01 4.711583E+01 -4.271271E+01
      vertex -3.973175E+01 4.711583E+01 -1.771271E+01
      vertex -3.662299E+01 4.711583E+01 -1.771271E+01
    endloop
  endfacet
  facet normal 3.428427E-15 -1.000000E+00 8.630014E-16
    outer loop
      vertex -4.551424E+01 -8.884164E+00 -5.388371E+01
      vertex -4.551424E+01 -8.884164E+00 -6.541711E+00
      vertex -4.862299E+01 -8.884164E+00 -5.388371E+01
    endloop
  endfacet
  facet normal 3.428427E-15 -1.000000E+00 8.630014E-16
    outer loop
      vertex -4.862299E+01 -8.884164E+00 -5.388371E+01
      vertex -4.551424E+01 -8.884164E+00 -6.541711E+00
      vertex -4.862299E+01 -8.884164E+00 -6.541711E+00
    endloop
  endfacet
  facet normal -2.912152E-15 1.956278E-01 -9.806782E-01
    outer loop
      vertex -4.862299E+01 -8.884164E+00 -5.388371E+01
      vertex -3.973175E+01 4.711583E+01 -4.271271E+01
      vertex -4.551424E+01 -8.884164E+00 -5.388371E+01
    endloop
  endfacet
  facet normal -2.561664E-15 1.956278E-01 -9.806782E-01
    outer loop
      vertex -4.551424E+01 -8.884164E+00 -5.388371E+01
      vertex -3.973175E+01 4.711583E+01 -4.271271E+01
      vertex -3.662299E+01 4.711583E+01 -4.271271E+01
    endloop
  endfacet
  facet normal -9.876291E-01 1.568081E-01 2.088132E-15
    outer loop
      vertex -4.862299E+01 -8.884164E+00 -5.388371E+01
      vertex -4.862299E+01 -8.884164E+00 -6.541711E+00
      vertex -3.973175E+01 4.711583E+01 -4.271271E+01
    endloop
  endfacet
  facet normal -9.876291E-01 1.568081E-01 2.067338E-15
    outer loop
      vertex -3.973175E+01 4.711583E+01 -4.271271E+01
      vertex -4.862299E+01 -8.884164E+00 -6.541711E+00
      vertex -3.973175E+01 4.711583E+01 -1.771271E+01
    endloop
  endfacet
  facet normal 1.570761E-15 1.956277E-01 9.806782E-01
    outer loop
      vertex -4.862299E+01 -8.884164E+00 -6.541711E+00
      vertex -4.551424E+01 -8.884164E+00 -6.541711E+00
      vertex -3.973175E+01 4.711583E+01 -1.771271E+01
    endloop
  endfacet
  facet normal -4.471303E-16 1.956277E-01 9.806782E-01
    outer loop
      vertex -3.973175E+01 4.711583E+01 -1.771271E+01
      vertex -4.551424E+01 -8.884164E+00 -6.541711E+00
      vertex -3.662299E+01 4.711583E+01 -1.771271E+01
    endloop
  endfacet
  facet normal 9.876291E-01 -1.568081E-01 -2.088132E-15
    outer loop
      vertex -4.551424E+01 -8.884164E+00 -6.541711E+00
      vertex -4.551424E+01 -8.884164E+00 -5.388371E+01
      vertex -3.662299E+01 4.711583E+01 -1.771271E+01
    endloop
  endfacet
  facet normal 9.876291E-01 -1.568081E-01 -2.067338E-15
    outer loop
      vertex -3.662299E+01 4.711583E+01 -1.771271E+01
      vertex -4.551424E+01 -8.884164E+00 -5.388371E+01
      vertex -3.662299E+01 4.711583E+01 -4.271271E+01
    endloop
  endfacet
  facet normal 0.000000E+00 1.000000E+00 0.000000E+00
    outer loop
      vertex -8.514238E+00 4.711583E+01 -1.771271E+01
      vertex -8.514238E+00 4.711583E+01 -4.271271E+01
      vertex -1.162299E+01 4.711583E+01 -1.771271E+01
    endloop
  endfacet
  facet normal 0.000000E+00 1.000000E+00 0.000000E+00
    outer loop
      vertex -1.162299E+01 4.711583E+01 -1.771271E+01
      vertex -8.514238E+00 4.711583E+01 -4.271271E+01
      vertex -1.162299E+01 4.711583E+01 -4.271271E+01
    endloop
  endfacet
  facet normal 0.000000E+00 -1.000000E+00 0.000000E+00
    outer loop
      vertex -2.731748E+00 -8.884164E+00 -6.541709E+00
      vertex -2.731748E+00 -8.884164E+00 -5.388371E+01
      vertex 3.770067E-01 -8.884164E+00 -6.541709E+00
    endloop
  endfacet
  facet normal 0.000000E+00 -1.000000E+00 -0.000000E+00
    outer loop
      vertex 3.770067E-01 -8.884164E+00 -6.541709E+00
      vertex -2.731748E+00 -8.884164E+00 -5.388371E+01
      vertex 3.770067E-01 -8.884164E+00 -5.388371E+01
    endloop
  endfacet
  facet normal 0.000000E+00 1.956278E-01 9.806782E-01
    outer loop
      vertex 3.770067E-01 -8.884164E+00 -6.541709E+00
      vertex -8.514238E+00 4.711583E+01 -1.771271E+01
      vertex -2.731748E+00 -8.884164E+00 -6.541709E+00
    endloop
  endfacet
  facet normal 0.000000E+00 1.956278E-01 9.806782E-01
    outer loop
      vertex -2.731748E+00 -8.884164E+00 -6.541709E+00
      vertex -8.514238E+00 4.711583E+01 -1.771271E+01
      vertex -1.162299E+01 4.711583E+01 -1.771271E+01
    endloop
  endfacet
  facet normal 9.876291E-01 1.568081E-01 0.000000E+00
    outer loop
      vertex 3.770067E-01 -8.884164E+00 -6.541709E+00
      vertex 3.770067E-01 -8.884164E+00 -5.388371E+01
      vertex -8.514238E+00 4.711583E+01 -1.771271E+01
    endloop
  endfacet
  facet normal 9.876291E-01 1.568081E-01 0.000000E+00
    outer loop
      vertex -8.514238E+00 4.711583E+01 -1.771271E+01
      vertex 3.770067E-01 -8.884164E+00 -5.388371E+01
      vertex -8.514238E+00 4.711583E+01 -4.271271E+01
    endloop
  endfacet
  facet normal 0.000000E+00 1.956277E-01 -9.806782E-01
    outer loop
      vertex 3.770067E-01 -8.884164E+00 -5.388371E+01
      vertex -2.731748E+00 -8.884164E+00 -5.388371E+01
      vertex -8.514238E+00 4.711583E+01 -4.271271E+01
    endloop
  endfacet
  facet normal 0.000000E+00 1.956277E-01 -9.806782E-01
    outer loop
      vertex -8.514238E+00 4.711583E+01 -4.271271E+01
      vertex -2.731748E+00 -8.884164E+00 -5.388371E+01
      vertex -1.162299E+01 4.711583E+01 -4.271271E+01
    endloop
  endfacet
  facet normal -9.876291E-01 -1.568081E-01 0.000000E+00
    outer loop
      vertex -2.731748E+00 -8.884164E+00 -5.388371E+01
      vertex -2.731748E+00 -8.884164E+00 -6.541709E+00
      vertex -1.162299E+01 4.711583E+01 -4.271271E+01
    endloop
  endfacet
  facet normal -9.876291E-01 -1.568081E-01 0.000000E+00
    outer loop
      vertex -1.162299E+01 4.711583E+01 -4.271271E+01
      vertex -2.731748E+00 -8.884164E+00 -6.541709E+00
      vertex -1.162299E+01 4.711583E+01 -1.771271E+01
    endloop
  endfacet
endsolid 
