solid 
  facet normal 0.000000E+00 -9.807041E-02 -9.951795E-01
    outer loop
      vertex 1.135000E+01 5.500000E+01 4.113000E+01
      vertex 3.855000E+01 5.500000E+01 4.113000E+01
      vertex 8.000000E-01 0.000000E+00 4.655000E+01
    endloop
  endfacet
  facet normal 0.000000E+00 -9.807041E-02 -9.951795E-01
    outer loop
      vertex 8.000000E-01 0.000000E+00 4.655000E+01
      vertex 3.855000E+01 5.500000E+01 4.113000E+01
      vertex 4.910000E+01 0.000000E+00 4.655000E+01
    endloop
  endfacet
  facet normal 9.820955E-01 -1.883838E-01 0.000000E+00
    outer loop
      vertex 1.135000E+01 5.500000E+01 4.113000E+01
      vertex 8.000000E-01 0.000000E+00 4.655000E+01
      vertex 1.135000E+01 5.500000E+01 1.343000E+01
    endloop
  endfacet
  facet normal 9.820955E-01 -1.883838E-01 0.000000E+00
    outer loop
      vertex 1.135000E+01 5.500000E+01 1.343000E+01
      vertex 8.000000E-01 0.000000E+00 4.655000E+01
      vertex 8.000000E-01 0.000000E+00 3.130000E+00
    endloop
  endfacet
  facet normal 0.000000E+00 -1.840727E-01 9.829126E-01
    outer loop
      vertex 3.855000E+01 5.500000E+01 1.343000E+01
      vertex 1.135000E+01 5.500000E+01 1.343000E+01
      vertex 4.910000E+01 0.000000E+00 3.130000E+00
    endloop
  endfacet
  facet normal 1.807457E-17 -1.840727E-01 9.829126E-01
    outer loop
      vertex 4.910000E+01 0.000000E+00 3.130000E+00
      vertex 1.135000E+01 5.500000E+01 1.343000E+01
      vertex 8.000000E-01 0.000000E+00 3.130000E+00
    endloop
  endfacet
  facet normal -9.820955E-01 -1.883838E-01 -0.000000E+00
    outer loop
      vertex 3.855000E+01 5.500000E+01 4.113000E+01
      vertex 3.855000E+01 5.500000E+01 1.343000E+01
      vertex 4.910000E+01 0.000000E+00 4.655000E+01
    endloop
  endfacet
  facet normal -9.820955E-01 -1.883838E-01 -0.000000E+00
    outer loop
      vertex 4.910000E+01 0.000000E+00 4.655000E+01
      vertex 3.855000E+01 5.500000E+01 1.343000E+01
      vertex 4.910000E+01 0.000000E+00 3.130000E+00
    endloop
  endfacet
  facet normal 0.000000E+00 1.000000E+00 -0.000000E+00
    outer loop
      vertex 1.135000E+01 5.500000E+01 4.113000E+01
      vertex 1.054000E+01 5.500000E+01 4.411000E+01
      vertex 3.855000E+01 5.500000E+01 4.113000E+01
    endloop
  endfacet
  facet normal 0.000000E+00 1.000000E+00 -0.000000E+00
    outer loop
      vertex 3.855000E+01 5.500000E+01 4.113000E+01
      vertex 1.054000E+01 5.500000E+01 4.411000E+01
      vertex 3.936000E+01 5.500000E+01 4.411000E+01
    endloop
  endfacet
  facet normal -0.000000E+00 1.000000E+00 0.000000E+00
    outer loop
      vertex 3.855000E+01 5.500000E+01 4.113000E+01
      vertex 3.936000E+01 5.500000E+01 4.411000E+01
      vertex 3.936000E+01 5.500000E+01 1.045000E+01
    endloop
  endfacet
  facet normal 0.000000E+00 1.000000E+00 0.000000E+00
    outer loop
      vertex 1.135000E+01 5.500000E+01 4.113000E+01
      vertex 1.135000E+01 5.500000E+01 1.343000E+01
      vertex 1.054000E+01 5.500000E+01 4.411000E+01
    endloop
  endfacet
  facet normal 0.000000E+00 1.000000E+00 0.000000E+00
    outer loop
      vertex 1.054000E+01 5.500000E+01 4.411000E+01
      vertex 1.135000E+01 5.500000E+01 1.343000E+01
      vertex 1.054000E+01 5.500000E+01 1.045000E+01
    endloop
  endfacet
  facet normal 0.000000E+00 1.000000E+00 0.000000E+00
    outer loop
      vertex 1.054000E+01 5.500000E+01 1.045000E+01
      vertex 1.135000E+01 5.500000E+01 1.343000E+01
      vertex 3.855000E+01 5.500000E+01 1.343000E+01
    endloop
  endfacet
  facet normal 0.000000E+00 1.000000E+00 0.000000E+00
    outer loop
      vertex 1.054000E+01 5.500000E+01 1.045000E+01
      vertex 3.855000E+01 5.500000E+01 1.343000E+01
      vertex 3.936000E+01 5.500000E+01 1.045000E+01
    endloop
  endfacet
  facet normal 0.000000E+00 1.000000E+00 0.000000E+00
    outer loop
      vertex 3.936000E+01 5.500000E+01 1.045000E+01
      vertex 3.855000E+01 5.500000E+01 1.343000E+01
      vertex 3.855000E+01 5.500000E+01 4.113000E+01
    endloop
  endfacet
  facet normal 0.000000E+00 -1.000000E+00 0.000000E+00
    outer loop
      vertex 4.910000E+01 0.000000E+00 4.655000E+01
      vertex 0.000000E+00 0.000000E+00 4.968000E+01
      vertex 8.000000E-01 0.000000E+00 4.655000E+01
    endloop
  endfacet
  facet normal -0.000000E+00 -1.000000E+00 0.000000E+00
    outer loop
      vertex 8.000000E-01 0.000000E+00 4.655000E+01
      vertex 0.000000E+00 0.000000E+00 4.968000E+01
      vertex 0.000000E+00 0.000000E+00 0.000000E+00
    endloop
  endfacet
  facet normal 0.000000E+00 -1.000000E+00 -0.000000E+00
    outer loop
      vertex 8.000000E-01 0.000000E+00 4.655000E+01
      vertex 0.000000E+00 0.000000E+00 0.000000E+00
      vertex 8.000000E-01 0.000000E+00 3.130000E+00
    endloop
  endfacet
  facet normal 0.000000E+00 -1.000000E+00 -0.000000E+00
    outer loop
      vertex 8.000000E-01 0.000000E+00 3.130000E+00
      vertex 0.000000E+00 0.000000E+00 0.000000E+00
      vertex 4.910000E+01 0.000000E+00 3.130000E+00
    endloop
  endfacet
  facet normal 0.000000E+00 -1.000000E+00 -0.000000E+00
    outer loop
      vertex 4.910000E+01 0.000000E+00 3.130000E+00
      vertex 0.000000E+00 0.000000E+00 0.000000E+00
      vertex 4.990000E+01 0.000000E+00 0.000000E+00
    endloop
  endfacet
  facet normal 0.000000E+00 -1.000000E+00 0.000000E+00
    outer loop
      vertex 4.910000E+01 0.000000E+00 3.130000E+00
      vertex 4.990000E+01 0.000000E+00 0.000000E+00
      vertex 4.990000E+01 0.000000E+00 4.968000E+01
    endloop
  endfacet
  facet normal 0.000000E+00 -1.000000E+00 0.000000E+00
    outer loop
      vertex 0.000000E+00 0.000000E+00 4.968000E+01
      vertex 4.910000E+01 0.000000E+00 4.655000E+01
      vertex 4.990000E+01 0.000000E+00 4.968000E+01
    endloop
  endfacet
  facet normal 0.000000E+00 -1.000000E+00 0.000000E+00
    outer loop
      vertex 4.990000E+01 0.000000E+00 4.968000E+01
      vertex 4.910000E+01 0.000000E+00 4.655000E+01
      vertex 4.910000E+01 0.000000E+00 3.130000E+00
    endloop
  endfacet
  facet normal -0.000000E+00 1.007574E-01 9.949110E-01
    outer loop
      vertex 0.000000E+00 0.000000E+00 4.968000E+01
      vertex 4.990000E+01 0.000000E+00 4.968000E+01
      vertex 1.054000E+01 5.500000E+01 4.411000E+01
    endloop
  endfacet
  facet normal -0.000000E+00 1.007574E-01 9.949110E-01
    outer loop
      vertex 1.054000E+01 5.500000E+01 4.411000E+01
      vertex 4.990000E+01 0.000000E+00 4.968000E+01
      vertex 3.936000E+01 5.500000E+01 4.411000E+01
    endloop
  endfacet
  facet normal -9.821285E-01 1.882115E-01 0.000000E+00
    outer loop
      vertex 0.000000E+00 0.000000E+00 0.000000E+00
      vertex 0.000000E+00 0.000000E+00 4.968000E+01
      vertex 1.054000E+01 5.500000E+01 1.045000E+01
    endloop
  endfacet
  facet normal -9.821285E-01 1.882115E-01 0.000000E+00
    outer loop
      vertex 1.054000E+01 5.500000E+01 1.045000E+01
      vertex 0.000000E+00 0.000000E+00 4.968000E+01
      vertex 1.054000E+01 5.500000E+01 4.411000E+01
    endloop
  endfacet
  facet normal 0.000000E+00 1.866606E-01 -9.824244E-01
    outer loop
      vertex 4.990000E+01 0.000000E+00 0.000000E+00
      vertex 0.000000E+00 0.000000E+00 0.000000E+00
      vertex 3.936000E+01 5.500000E+01 1.045000E+01
    endloop
  endfacet
  facet normal 0.000000E+00 1.866606E-01 -9.824244E-01
    outer loop
      vertex 3.936000E+01 5.500000E+01 1.045000E+01
      vertex 0.000000E+00 0.000000E+00 0.000000E+00
      vertex 1.054000E+01 5.500000E+01 1.045000E+01
    endloop
  endfacet
  facet normal 9.821285E-01 1.882115E-01 -0.000000E+00
    outer loop
      vertex 4.990000E+01 0.000000E+00 0.000000E+00
      vertex 3.936000E+01 5.500000E+01 1.045000E+01
      vertex 4.990000E+01 0.000000E+00 4.968000E+01
    endloop
  endfacet
  facet normal 9.821285E-01 1.882115E-01 0.000000E+00
    outer loop
      vertex 4.990000E+01 0.000000E+00 4.968000E+01
      vertex 3.936000E+01 5.500000E+01 1.045000E+01
      vertex 3.936000E+01 5.500000E+01 4.411000E+01
    endloop
  endfacet
endsolid 
